# xmcd CD database file
#
# Track frame offsets:
#	150
#	13833
#	24803
#	38490
#	52843
#
# Disc length: 855 seconds
#
# Revision: 1
# Processed by: cddbd v1.4PL0 Copyright (c) Steve Scherf et al.
# Submitted via: Feurio! 1.64 - http://www.feurio.com
#
DISCID=29035505
DTITLE=Jim Croce - Castle Gold Collection, Vol. 17
DYEAR=1991
DGENRE=
TTITLE0=Bad, Bad Leroy Brown
TTITLE1=Time In A Bottle
TTITLE2=You Don't Mess Around With Jim
TTITLE3=I Got A Name
TTITLE4=I'll Have To Say I Love You In A Song
EXTD=
EXTT0=
EXTT1=
EXTT2=
EXTT3=
EXTT4=
PLAYORDER=
